<mxfile host="app.diagrams.net" modified="2023-08-17T06:52:57.562Z" agent="Mozilla/5.0 (Macintosh; Intel Mac OS X 10_15_7) AppleWebKit/537.36 (KHTML, like Gecko) Chrome/115.0.0.0 Safari/537.36" etag="A8NWhPfDSujhJEtGv7gs" version="21.6.8" type="github">
  <diagram name="第 1 页" id="d1LPDSnVlZX18KEoGlfV">
    <mxGraphModel dx="954" dy="610" grid="1" gridSize="10" guides="1" tooltips="1" connect="1" arrows="1" fold="1" page="1" pageScale="1" pageWidth="827" pageHeight="1169" math="0" shadow="0">
      <root>
        <mxCell id="0" />
        <mxCell id="1" parent="0" />
        <mxCell id="owMUaTQ9m5HegwS5gqiI-4" style="edgeStyle=orthogonalEdgeStyle;rounded=0;orthogonalLoop=1;jettySize=auto;html=1;entryX=0;entryY=0.5;entryDx=0;entryDy=0;curved=1;" edge="1" parent="1" source="owMUaTQ9m5HegwS5gqiI-1" target="owMUaTQ9m5HegwS5gqiI-2">
          <mxGeometry relative="1" as="geometry" />
        </mxCell>
        <mxCell id="owMUaTQ9m5HegwS5gqiI-1" value="程序代码" style="rounded=0;whiteSpace=wrap;html=1;" vertex="1" parent="1">
          <mxGeometry x="120" y="140" width="120" height="60" as="geometry" />
        </mxCell>
        <mxCell id="owMUaTQ9m5HegwS5gqiI-5" style="edgeStyle=orthogonalEdgeStyle;rounded=0;orthogonalLoop=1;jettySize=auto;html=1;curved=1;entryX=0;entryY=0.5;entryDx=0;entryDy=0;" edge="1" parent="1" source="owMUaTQ9m5HegwS5gqiI-2" target="owMUaTQ9m5HegwS5gqiI-3">
          <mxGeometry relative="1" as="geometry" />
        </mxCell>
        <mxCell id="owMUaTQ9m5HegwS5gqiI-2" value="第三方" style="rounded=0;whiteSpace=wrap;html=1;" vertex="1" parent="1">
          <mxGeometry x="310" y="20" width="120" height="60" as="geometry" />
        </mxCell>
        <mxCell id="owMUaTQ9m5HegwS5gqiI-3" value="Bean对象" style="rounded=0;whiteSpace=wrap;html=1;" vertex="1" parent="1">
          <mxGeometry x="500" y="140" width="120" height="60" as="geometry" />
        </mxCell>
        <mxCell id="owMUaTQ9m5HegwS5gqiI-7" style="edgeStyle=orthogonalEdgeStyle;rounded=0;orthogonalLoop=1;jettySize=auto;html=1;entryX=0;entryY=0.5;entryDx=0;entryDy=0;curved=1;" edge="1" parent="1" source="owMUaTQ9m5HegwS5gqiI-8" target="owMUaTQ9m5HegwS5gqiI-10">
          <mxGeometry relative="1" as="geometry" />
        </mxCell>
        <mxCell id="owMUaTQ9m5HegwS5gqiI-8" value="程序代码" style="rounded=0;whiteSpace=wrap;html=1;" vertex="1" parent="1">
          <mxGeometry x="150" y="430" width="120" height="60" as="geometry" />
        </mxCell>
        <mxCell id="owMUaTQ9m5HegwS5gqiI-9" style="edgeStyle=orthogonalEdgeStyle;rounded=0;orthogonalLoop=1;jettySize=auto;html=1;curved=1;entryX=0;entryY=0.5;entryDx=0;entryDy=0;" edge="1" parent="1" source="owMUaTQ9m5HegwS5gqiI-10" target="owMUaTQ9m5HegwS5gqiI-11">
          <mxGeometry relative="1" as="geometry" />
        </mxCell>
        <mxCell id="owMUaTQ9m5HegwS5gqiI-10" value="第三方" style="rounded=0;whiteSpace=wrap;html=1;" vertex="1" parent="1">
          <mxGeometry x="340" y="310" width="120" height="60" as="geometry" />
        </mxCell>
        <mxCell id="owMUaTQ9m5HegwS5gqiI-11" value="Bean Proxy" style="rounded=0;whiteSpace=wrap;html=1;" vertex="1" parent="1">
          <mxGeometry x="530" y="440" width="120" height="60" as="geometry" />
        </mxCell>
        <mxCell id="owMUaTQ9m5HegwS5gqiI-12" value="Bean对象" style="rounded=0;whiteSpace=wrap;html=1;" vertex="1" parent="1">
          <mxGeometry x="530" y="510" width="120" height="60" as="geometry" />
        </mxCell>
        <mxCell id="owMUaTQ9m5HegwS5gqiI-18" value="" style="edgeStyle=orthogonalEdgeStyle;rounded=0;orthogonalLoop=1;jettySize=auto;html=1;" edge="1" parent="1" source="owMUaTQ9m5HegwS5gqiI-13" target="owMUaTQ9m5HegwS5gqiI-14">
          <mxGeometry relative="1" as="geometry" />
        </mxCell>
        <mxCell id="owMUaTQ9m5HegwS5gqiI-13" value="程序代码" style="rounded=0;whiteSpace=wrap;html=1;" vertex="1" parent="1">
          <mxGeometry x="40" y="830" width="120" height="60" as="geometry" />
        </mxCell>
        <mxCell id="owMUaTQ9m5HegwS5gqiI-19" value="" style="edgeStyle=orthogonalEdgeStyle;rounded=0;orthogonalLoop=1;jettySize=auto;html=1;" edge="1" parent="1" source="owMUaTQ9m5HegwS5gqiI-14" target="owMUaTQ9m5HegwS5gqiI-15">
          <mxGeometry relative="1" as="geometry" />
        </mxCell>
        <mxCell id="owMUaTQ9m5HegwS5gqiI-14" value="第三方" style="rounded=0;whiteSpace=wrap;html=1;" vertex="1" parent="1">
          <mxGeometry x="240" y="830" width="120" height="60" as="geometry" />
        </mxCell>
        <mxCell id="owMUaTQ9m5HegwS5gqiI-20" value="" style="edgeStyle=orthogonalEdgeStyle;rounded=0;orthogonalLoop=1;jettySize=auto;html=1;" edge="1" parent="1" source="owMUaTQ9m5HegwS5gqiI-15" target="owMUaTQ9m5HegwS5gqiI-17">
          <mxGeometry relative="1" as="geometry" />
        </mxCell>
        <mxCell id="owMUaTQ9m5HegwS5gqiI-21" style="edgeStyle=orthogonalEdgeStyle;rounded=0;orthogonalLoop=1;jettySize=auto;html=1;" edge="1" parent="1" source="owMUaTQ9m5HegwS5gqiI-15" target="owMUaTQ9m5HegwS5gqiI-16">
          <mxGeometry relative="1" as="geometry" />
        </mxCell>
        <mxCell id="owMUaTQ9m5HegwS5gqiI-15" value="配置清单" style="rounded=0;whiteSpace=wrap;html=1;" vertex="1" parent="1">
          <mxGeometry x="440" y="830" width="120" height="60" as="geometry" />
        </mxCell>
        <mxCell id="owMUaTQ9m5HegwS5gqiI-16" value="Bean类" style="ellipse;whiteSpace=wrap;html=1;" vertex="1" parent="1">
          <mxGeometry x="600" y="760" width="120" height="80" as="geometry" />
        </mxCell>
        <mxCell id="owMUaTQ9m5HegwS5gqiI-17" value="Bean类" style="ellipse;whiteSpace=wrap;html=1;" vertex="1" parent="1">
          <mxGeometry x="600" y="860" width="120" height="80" as="geometry" />
        </mxCell>
      </root>
    </mxGraphModel>
  </diagram>
</mxfile>
